<svg width="34" height="34" viewBox="0 0 34 34" fill="none" xmlns="http://www.w3.org/2000/svg">
<path d="M17 33C8.1632 33 1 25.8368 1 17C1 8.1632 8.1632 1 17 1C25.8368 1 33 8.1632 33 17C33 25.8368 25.8368 33 17 33ZM17 29.8C20.3948 29.8 23.6505 28.4514 26.051 26.051C28.4514 23.6505 29.8 20.3948 29.8 17C29.8 13.6052 28.4514 10.3495 26.051 7.94903C23.6505 5.54857 20.3948 4.2 17 4.2C13.6052 4.2 10.3495 5.54857 7.94903 7.94903C5.54857 10.3495 4.2 13.6052 4.2 17C4.2 20.3948 5.54857 23.6505 7.94903 26.051C10.3495 28.4514 13.6052 29.8 17 29.8ZM15.4048 23.4L8.616 16.6112L10.8784 14.3488L15.4048 18.8752L24.4544 9.824L26.7184 12.0864L15.4048 23.4Z" fill="#9876AA" stroke="#9876AA" stroke-width="0.5"/>
</svg>
